<svg xmlns="http://www.w3.org/2000/svg" viewBox="0 0 1000 1000" width="1000" height="1000">
  <defs>
    <radialGradient id="fade" cx="50%" cy="50%" r="50%">
      <stop offset="0%" stop-color="#fff" stop-opacity="1"/>
      <stop offset="48%" stop-color="#fff" stop-opacity="1"/>
      <stop offset="76%" stop-color="#fff" stop-opacity="0"/>
    </radialGradient>
    <mask id="fadeMask"><rect width="1000" height="1000" fill="url(#fade)"/></mask>
    <radialGradient id="glow" cx="50%" cy="47%" r="44%">
      <stop offset="0%" stop-color="#ffffff" stop-opacity="0.98"/>
      <stop offset="32%" stop-color="#ffffff" stop-opacity="0.5"/>
      <stop offset="64%" stop-color="#ffffff" stop-opacity="0"/>
    </radialGradient>
    <filter id="liquid" x="-20%" y="-20%" width="140%" height="140%">
      <feTurbulence type="fractalNoise" baseFrequency="0.011 0.015" numOctaves="2" seed="9" result="noise">
        <animate attributeName="baseFrequency" dur="20s" values="0.011 0.015;0.014 0.012;0.011 0.015" repeatCount="indefinite"/>
      </feTurbulence>
      <feDisplacementMap in="SourceGraphic" in2="noise" scale="24" xChannelSelector="R" yChannelSelector="G"/>
      <feGaussianBlur stdDeviation="0.7"/>
    </filter>
    <linearGradient id="glass" x1="0" y1="316" x2="0" y2="660" gradientUnits="userSpaceOnUse">
      <stop offset="0%" stop-color="#ffffff"/>
      <stop offset="44%" stop-color="#edf2f6"/>
      <stop offset="80%" stop-color="#c9d5df"/>
      <stop offset="100%" stop-color="#aebcc8"/>
    </linearGradient>
    <radialGradient id="glassShade" cx="50%" cy="64%" r="60%">
      <stop offset="0%" stop-color="#16303f" stop-opacity="0"/>
      <stop offset="70%" stop-color="#16303f" stop-opacity="0"/>
      <stop offset="100%" stop-color="#16303f" stop-opacity="0.20"/>
    </radialGradient>
    <linearGradient id="shaft" x1="0" y1="224" x2="0" y2="340" gradientUnits="userSpaceOnUse">
      <stop offset="0%" stop-color="#16232f" stop-opacity="0"/>
      <stop offset="34%" stop-color="#22384a"/>
      <stop offset="100%" stop-color="#2f4a63"/>
    </linearGradient>
    <filter id="soft" x="-60%" y="-60%" width="220%" height="220%"><feGaussianBlur stdDeviation="11"/></filter>
    <filter id="soft2" x="-60%" y="-60%" width="220%" height="220%"><feGaussianBlur stdDeviation="20"/></filter>
  </defs>

  <g mask="url(#fadeMask)">
    <g transform="translate(500,505) scale(1,0.6) translate(-500,-505)">
      <g filter="url(#liquid)">
      <circle cx="500" cy="503" r="40" fill="none" stroke="#16303f" stroke-opacity="0.170" stroke-width="3.40"/>
      <circle cx="500" cy="498.4" r="40" fill="none" stroke="#ffffff" stroke-opacity="0.950" stroke-width="3.40"/>
      <circle cx="500" cy="503" r="63" fill="none" stroke="#16303f" stroke-opacity="0.163" stroke-width="3.33"/>
      <circle cx="500" cy="498.4" r="63" fill="none" stroke="#ffffff" stroke-opacity="0.910" stroke-width="3.33"/>
      <circle cx="500" cy="503" r="86" fill="none" stroke="#16303f" stroke-opacity="0.156" stroke-width="3.26"/>
      <circle cx="500" cy="498.4" r="86" fill="none" stroke="#ffffff" stroke-opacity="0.870" stroke-width="3.26"/>
      <circle cx="500" cy="503" r="109" fill="none" stroke="#16303f" stroke-opacity="0.149" stroke-width="3.19"/>
      <circle cx="500" cy="498.4" r="109" fill="none" stroke="#ffffff" stroke-opacity="0.831" stroke-width="3.19"/>
      <circle cx="500" cy="503" r="132" fill="none" stroke="#16303f" stroke-opacity="0.142" stroke-width="3.11"/>
      <circle cx="500" cy="498.4" r="132" fill="none" stroke="#ffffff" stroke-opacity="0.791" stroke-width="3.11"/>
      <circle cx="500" cy="503" r="155" fill="none" stroke="#16303f" stroke-opacity="0.134" stroke-width="3.04"/>
      <circle cx="500" cy="498.4" r="155" fill="none" stroke="#ffffff" stroke-opacity="0.751" stroke-width="3.04"/>
      <circle cx="500" cy="503" r="178" fill="none" stroke="#16303f" stroke-opacity="0.127" stroke-width="2.97"/>
      <circle cx="500" cy="498.4" r="178" fill="none" stroke="#ffffff" stroke-opacity="0.711" stroke-width="2.97"/>
      <circle cx="500" cy="503" r="201" fill="none" stroke="#16303f" stroke-opacity="0.120" stroke-width="2.90"/>
      <circle cx="500" cy="498.4" r="201" fill="none" stroke="#ffffff" stroke-opacity="0.671" stroke-width="2.90"/>
      <circle cx="500" cy="503" r="224" fill="none" stroke="#16303f" stroke-opacity="0.113" stroke-width="2.83"/>
      <circle cx="500" cy="498.4" r="224" fill="none" stroke="#ffffff" stroke-opacity="0.631" stroke-width="2.83"/>
      <circle cx="500" cy="503" r="247" fill="none" stroke="#16303f" stroke-opacity="0.106" stroke-width="2.76"/>
      <circle cx="500" cy="498.4" r="247" fill="none" stroke="#ffffff" stroke-opacity="0.592" stroke-width="2.76"/>
      <circle cx="500" cy="503" r="270" fill="none" stroke="#16303f" stroke-opacity="0.099" stroke-width="2.68"/>
      <circle cx="500" cy="498.4" r="270" fill="none" stroke="#ffffff" stroke-opacity="0.552" stroke-width="2.68"/>
      <circle cx="500" cy="503" r="293" fill="none" stroke="#16303f" stroke-opacity="0.092" stroke-width="2.61"/>
      <circle cx="500" cy="498.4" r="293" fill="none" stroke="#ffffff" stroke-opacity="0.512" stroke-width="2.61"/>
      <circle cx="500" cy="503" r="316" fill="none" stroke="#16303f" stroke-opacity="0.085" stroke-width="2.54"/>
      <circle cx="500" cy="498.4" r="316" fill="none" stroke="#ffffff" stroke-opacity="0.472" stroke-width="2.54"/>
      <circle cx="500" cy="503" r="339" fill="none" stroke="#16303f" stroke-opacity="0.077" stroke-width="2.47"/>
      <circle cx="500" cy="498.4" r="339" fill="none" stroke="#ffffff" stroke-opacity="0.432" stroke-width="2.47"/>
      <circle cx="500" cy="503" r="362" fill="none" stroke="#16303f" stroke-opacity="0.070" stroke-width="2.40"/>
      <circle cx="500" cy="498.4" r="362" fill="none" stroke="#ffffff" stroke-opacity="0.393" stroke-width="2.40"/>
      <circle cx="500" cy="503" r="385" fill="none" stroke="#16303f" stroke-opacity="0.063" stroke-width="2.33"/>
      <circle cx="500" cy="498.4" r="385" fill="none" stroke="#ffffff" stroke-opacity="0.353" stroke-width="2.33"/>
      <circle cx="500" cy="503" r="408" fill="none" stroke="#16303f" stroke-opacity="0.056" stroke-width="2.26"/>
      <circle cx="500" cy="498.4" r="408" fill="none" stroke="#ffffff" stroke-opacity="0.313" stroke-width="2.26"/>
      <circle cx="500" cy="503" r="431" fill="none" stroke="#16303f" stroke-opacity="0.049" stroke-width="2.18"/>
      <circle cx="500" cy="498.4" r="431" fill="none" stroke="#ffffff" stroke-opacity="0.273" stroke-width="2.18"/>
      <circle cx="500" cy="503" r="454" fill="none" stroke="#16303f" stroke-opacity="0.042" stroke-width="2.11"/>
      <circle cx="500" cy="498.4" r="454" fill="none" stroke="#ffffff" stroke-opacity="0.233" stroke-width="2.11"/>
      <circle cx="500" cy="503" r="477" fill="none" stroke="#16303f" stroke-opacity="0.035" stroke-width="2.04"/>
      <circle cx="500" cy="498.4" r="477" fill="none" stroke="#ffffff" stroke-opacity="0.194" stroke-width="2.04"/>
      </g>
    </g>
  </g>
  <ellipse cx="500" cy="500" rx="480" ry="290" fill="url(#glow)"/>

  <g>
    <animateTransform attributeName="transform" type="translate" values="0 0;0 -10;0 0" dur="9s" repeatCount="indefinite" calcMode="spline" keySplines="0.4 0 0.2 1;0.4 0 0.2 1" keyTimes="0;0.5;1"/>
    <ellipse cx="502" cy="666" rx="118" ry="24" fill="#16303f" opacity="0.18" filter="url(#soft2)"/>
    <path d="M500,320 C497,286 508,258 501,226" stroke="url(#shaft)" stroke-width="5" stroke-linecap="round" fill="none"/>
    <path d="M500,320 C578,398 606,478 606,534 C606,602 558,648 500,648 C442,648 394,602 394,534 C394,478 422,398 500,320 Z" fill="url(#glass)" fill-opacity="0.93"/>
    <path d="M500,320 C578,398 606,478 606,534 C606,602 558,648 500,648 C442,648 394,602 394,534 C394,478 422,398 500,320 Z" fill="url(#glassShade)"/>
    <path d="M500,320 C578,398 606,478 606,534 C606,602 558,648 500,648 C442,648 394,602 394,534 C394,478 422,398 500,320 Z" fill="none" stroke="#ffffff" stroke-opacity="0.6" stroke-width="1.4"/>
    <ellipse cx="456" cy="470" rx="44" ry="90" fill="#ffffff" opacity="0.82" filter="url(#soft)" transform="rotate(-16 456 470)"/>
    <circle cx="552" cy="576" r="20" fill="#ffffff" opacity="0.5" filter="url(#soft)"/>
    <path d="M428,612 C460,646 542,646 574,612" stroke="#ffffff" stroke-opacity="0.55" stroke-width="3" fill="none" filter="url(#soft)"/>
  </g>
</svg>
